#!OML:ASF F:\VICON\USERDATA\INSTALL\rory3\rory3.ASF
:FULLY-SPECIFIED
:DEGREES
1018
root -2.04155 17.0086 1.75149 39.7418 3.20472 361.389
lowerback -4.54926 -4.65528 10.7652
upperback -15.0031 -5.89808 2.45427
thorax -15.0862 -4.09074 -2.58195
lowerneck -15.8656 -13.7399 -11.4559
upperneck 13.3678 -18.3331 11.8643
head 8.95139 -8.25051 3.22999
rclavicle 4.91992e-014 2.00773e-014
rhumerus -30.0167 18.7626 -96.546
rradius 41.1818
rwrist -15.7987
rhand -2.86925 14.0718
rfingers 7.12502
rthumb 22.8394 -14.5959
lclavicle 4.91992e-014 2.00773e-014
lhumerus -35.4649 -19.5538 107.464
lradius 44.7205
lwrist -5.95321
lhand 2.22486 12.9554
lfingers 7.12502
lthumb 27.7196 40.9321
rfemur -54.6464 9.91346 19.135
rtibia 25.7816
rfoot -53.3844 -38.7044
rtoes 39.2456
lfemur -0.503966 4.88331 -20.4206
ltibia 0
lfoot -44.9781 39.0236
ltoes 52.1369
1019
root -2.05067 17.0195 1.8053 39.4791 3.07107 361.337
lowerback -4.94545 -4.54376 10.7984
upperback -15.0042 -5.80353 2.35537
thorax -14.8419 -4.05477 -2.76248
lowerneck -15.5191 -13.7392 -11.4726
upperneck 13.9111 -18.3829 11.61
head 9.05578 -8.29837 3.15253
rclavicle 2.37548e-014 1.66979e-014
rhumerus -30.0982 18.309 -96.223
rradius 40.6253
rwrist -15.9895
rhand -2.70502 13.5151
rfingers 7.12502
rthumb 22.997 -15.133
lclavicle 2.37548e-014 1.66979e-014
lhumerus -35.0886 -19.6264 106.848
lradius 44.6974
lwrist -5.54804
lhand 1.91292 12.9329
lfingers 7.12502
lthumb 27.4213 40.9573
rfemur -54.3324 10.091 19.1665
rtibia 26.1173
rfoot -53.8471 -38.4834
rtoes 39.4313
lfemur -0.0911194 5.02005 -20.5955
ltibia -3.81667e-014
lfoot -46.002 38.4068
ltoes 52.2249
1020
root -2.06631 17.0265 1.84935 39.2997 2.42042 361.708
lowerback -5.3746 -4.43802 10.036
upperback -15.0026 -5.75336 2.15415
thorax -14.4561 -3.94805 -2.63633
lowerneck -15.1837 -13.6956 -11.3619
upperneck 14.3389 -18.3539 11.2203
head 9.08605 -8.31891 3.02919
rclavicle -1.50828e-014 1.8487e-014
rhumerus -30.0985 17.8003 -95.8587
rradius 40.094
rwrist -16.0059
rhand -2.62655 13.4295
rfingers 7.12502
rthumb 23.0723 -15.2093
lclavicle -1.50828e-014 1.8487e-014
lhumerus -34.5998 -19.8007 106.212
lradius 44.4622
lwrist -5.12239
lhand 0.529052 12.4163
lfingers 7.12502
lthumb 26.097 40.6433
rfemur -54.1803 10.3624 18.509
rtibia 26.3744
rfoot -53.8326 -38.4787
rtoes 39.5224
lfemur 0.168005 5.28881 -21.4623
ltibia -4.45278e-014
lfoot -44.7951 39.9062
ltoes 52.2783
1021
root -2.07758 17.0379 1.89881 39.0849 1.93227 361.752
lowerback -5.57379 -4.32935 9.64452
upperback -15.1518 -5.63116 2.14415
thorax -14.4389 -3.84769 -2.45935
lowerneck -14.5864 -13.6379 -11.6278
upperneck 14.7117 -18.2744 10.984
head 9.09954 -8.33423 3.03271
rclavicle 5.66536e-015 -2.98177e-014
rhumerus -30.3043 17.3255 -95.4328
rradius 39.352
rwrist -15.8119
rhand -2.52738 14.1482
rfingers 7.12502
rthumb 23.1675 -14.4786
lclavicle 5.66536e-015 -2.98177e-014
lhumerus -34.3678 -19.2964 105.674
lradius 44.2091
lwrist -5.10592
lhand -0.365092 12.1193
lfingers 7.12502
lthumb 25.2406 40.4698
rfemur -53.8866 10.7207 18.2194
rtibia 26.5049
rfoot -53.9077 -38.3976
rtoes 39.7853
lfemur 0.457005 5.64983 -21.9325
ltibia -9.54166e-015
lfoot -41.4866 43.504
ltoes 51.4869
1022
root -2.07278 17.0418 1.9671 38.644 2.28285 361.182
lowerback -5.79184 -4.26055 10.5425
upperback -15.1817 -5.52573 2.27801
thorax -14.4605 -3.8976 -2.81265
lowerneck -14.105 -13.5848 -11.7175
upperneck 15.1429 -18.2177 10.6603
head 9.1295 -8.35332 2.97192
rclavicle 1.11792e-013 2.08724e-014
rhumerus -30.4469 16.83 -95.0403
rradius 38.5728
rwrist -15.5029
rhand -2.09993 13.8396
rfingers 7.12502
rthumb 23.5775 -14.7351
lclavicle 1.11792e-013 2.08724e-014
lhumerus -34.1622 -18.5054 104.959
lradius 44.1672
lwrist -5.4782
lhand -0.108221 12.3724
lfingers 7.12502
lthumb 25.4867 40.688
rfemur -53.1308 10.8974 19.0601
rtibia 26.5797
rfoot -53.8392 -38.907
rtoes 39.0512
lfemur 1.15345 5.74464 -21.3628
ltibia 6.04305e-014
lfoot -41.1571 44.1557
ltoes 50.9595
1023
root -2.06998 17.0347 2.03215 38.3002 2.49717 360.879
lowerback -6.3746 -4.2084 11.1623
upperback -15.0479 -5.52252 2.29831
thorax -14.0316 -3.95606 -3.18668
lowerneck -13.9436 -13.5045 -11.6082
upperneck 15.6042 -18.1331 10.3386
head 9.2044 -8.3346 2.86943
rclavicle 1.81391e-014 -6.95746e-015
rhumerus -30.2538 16.443 -94.6813
rradius 37.8906
rwrist -15.2623
rhand -1.87861 13.1264
rfingers 7.12502
rthumb 23.7898 -15.4208
lclavicle 1.81391e-014 -6.95746e-015
lhumerus -33.6078 -18.0494 104.031
lradius 44.0744
lwrist -5.64768
lhand 0.296892 12.7907
lfingers 7.12502
lthumb 25.8747 41.0503
rfemur -52.5092 11.0222 19.6277
rtibia 26.6376
rfoot -53.5214 -39.6997
rtoes 37.8748
lfemur 0.00218458 5.84755 -21.1354
ltibia 3.17581
lfoot -40.8347 42.6654
ltoes 51.0308
1024
root -2.08272 17.0321 2.07359 38.1039 1.8656 361.185
lowerback -6.73182 -4.13805 10.503
upperback -15.0572 -5.49298 2.16418
thorax -13.723 -3.86824 -3.02495
lowerneck -13.5705 -13.4147 -11.5441
upperneck 15.9179 -18.0438 10.0808
head 9.20244 -8.32306 2.8099
rclavicle 4.10739e-014 -2.24627e-014
rhumerus -30.1612 15.958 -94.2196
rradius 37.1997
rwrist -14.7074
rhand -1.95378 13.135
rfingers 7.12502
rthumb 23.7177 -15.4215
lclavicle 4.10739e-014 -2.24627e-014
lhumerus -33.0932 -17.459 103.081
lradius 43.8478
lwrist -5.89917
lhand 0.651015 12.8314
lfingers 7.12502
lthumb 26.2138 41.041
rfemur -52.2124 11.3695 19.1094
rtibia 26.7345
rfoot -53.8443 -39.5903
rtoes 37.9846
lfemur -1.17605 6.22589 -21.9296
ltibia 5.84823
lfoot -39.318 42.4363
ltoes 51.1271
